<?xml version="1.0" encoding="UTF-8"?>
<svg width="128px" height="128px" viewBox="0 0 128 128" version="1.1" xmlns="http://www.w3.org/2000/svg" xmlns:xlink="http://www.w3.org/1999/xlink">
    <!-- Generator: Sketch 64 (93537) - https://sketch.com -->
    <title>腾讯云开发者小程序logo-400x400-01@2x</title>
    <desc>Created with Sketch.</desc>
    <g id="页面-1" stroke="none" stroke-width="1" fill="none" fill-rule="evenodd">
        <g id="腾讯云开发者小程序logo-400x400-01">
            <g id="编组-3">
                <rect id="Rectangle-72-Copy-4" x="0" y="0" width="128" height="128"></rect>
                <g id="编组-2" transform="translate(8.000000, 23.360000)">
                    <g id="Group-125-Copy-4">
                        <path d="M104.416,36.864 C99.744,32.096 93.248,29.088 86.016,29.088 C79.776,29.088 74.368,31.264 69.664,35.104 C67.616,36.768 65.472,38.784 62.752,41.408 C61.408,42.72 22.464,80.64 22.464,80.64 C24.512,80.928 27.328,81.024 29.824,81.024 C32.16,81.024 76.928,81.024 78.784,81.024 C82.56,81.024 85.024,81.024 87.648,80.832 C93.696,80.384 99.392,78.176 104.032,73.632 C114.272,63.52 114.432,47.136 104.416,36.864 M96.928,66.368 C94.944,68.352 91.392,70.592 85.568,70.784 C82.88,70.88 79.744,70.88 78.304,70.88 C76.736,70.88 62.912,70.88 47.04,70.88 C58.4,59.808 68.32,50.144 69.44,49.024 C70.464,48.032 72.8,45.792 74.784,44 C79.168,40.032 83.136,39.232 85.92,39.264 C90.304,39.296 94.272,41.088 97.12,44 C103.264,50.24 103.136,60.224 96.928,66.368" id="Fill-1" fill="#00A3FF"></path>
                        <path d="M41.568,34.432 C36.992,31.008 31.872,29.056 26.048,29.0876126 C18.816,29.0876126 12.288,32.096 7.648,36.864 C-2.368,47.136 -2.208,63.52 8.064,73.632 C12.16,77.696 17.152,79.904 22.464,80.64 L32.48,70.88 C30.848,70.88 28.544,70.848 26.464,70.784 C20.64,70.592 17.12,68.352 15.104,66.368 C8.96,60.224 8.8,50.24 14.88,44 C17.728,41.088 21.696,39.296 26.08,39.264 C28.832,39.264 32.544,40.064 36.768,43.552 C38.784,45.216 43.232,49.152 45.184,50.944 C45.28,51.04 45.408,51.04 45.536,50.944 L52.448,44.192 C52.576,44.064 52.576,43.904 52.448,43.808 C49.12,40.768 44.416,36.544 41.568,34.432" id="Fill-4" fill="#00C8DC"></path>
                        <path d="M88.736,23.232 C83.968,9.728 71.136,0.0639399826 56.064,0.0639399826 C38.72,0.032 24.384,12.8 21.792,29.44 C23.2,29.216 24.608,29.088 26.08,29.088 C28.128,29.088 30.048,29.312 31.936,29.76 C31.968,29.76 32,29.76 32.032,29.792 C34.368,18.56 44.288,10.208 56.032,10.208 C65.824,10.208 74.432,16.128 78.304,24.544 C78.368,24.672 78.464,24.736 78.56,24.704 C81.472,23.904 84.96,23.424 88.352,23.68 C88.704,23.712 88.832,23.52 88.736,23.232" id="Fill-6" fill="#006EFF"></path>
                    </g>
                    <g id="编组" transform="translate(56.000000, 53.006982)">
                        <path d="M14.08,0.128 L38.08,0.128 C45.792,0.128 52.032,6.368 52.032,14.08 C52.032,21.792 45.792,28.032 38.08,28.032 L14.08,28.032 C6.368,28.032 0.128,21.792 0.128,14.08 C0.128,6.368 6.368,0.128 14.08,0.128 Z" id="Rectangle-71-Copy-4" fill="#000000" fill-rule="nonzero" opacity="0.7"></path>
                        <path d="M32.768,4.704 L24.992,21.728 L20.448,21.728 L28.224,4.704 L32.768,4.704 Z M15.456,7.808 L18.368,10.464 L14.464,14.88 L18.368,19.2 L15.456,21.728 L9.12,14.88 L15.456,7.808 Z M37.28,7.808 L43.616,14.88 L37.28,21.728 L34.368,19.2 L38.272,14.88 L34.368,10.464 L37.28,7.808 Z" id="形状结合" fill="#FFFFFF"></path>
                    </g>
                </g>
            </g>
        </g>
    </g>
</svg>