<?xml version="1.0" encoding="UTF-8"?>
<svg width="81px" height="20px" viewBox="0 0 81 20" version="1.1" xmlns="http://www.w3.org/2000/svg" xmlns:xlink="http://www.w3.org/1999/xlink">
    <!-- Generator: Sketch 55.2 (78181) - https://sketchapp.com -->
    <title>logo</title>
    <desc>Created with Sketch.</desc>
    <defs>
        <polygon id="path-1" points="0 16 47.335 16 47.335 0.616 0 0.616"></polygon>
    </defs>
    <g id="页面1" stroke="none" stroke-width="1" fill="none" fill-rule="evenodd">
        <g id="社区" transform="translate(-242.000000, -14.000000)">
            <g id="logo" transform="translate(242.000000, 14.000000)">
                <g id="腾讯云开发者小程序logo" fill-rule="nonzero">
                    <g id="Group-125-Copy-4">
                        <path d="M25.1788735,9.07025 C24.0500478,7.89380769 22.4767098,7.15246153 20.7276366,7.15226923 C19.2156366,7.15226923 17.9139921,7.68505769 16.777546,8.63092308 C16.2820443,9.04323077 15.7623648,9.53688461 15.1086261,10.1859231 C14.7838735,10.5082308 5.3694345,19.8449616 5.3694345,19.8449616 C5.86296062,19.9167884 6.54172369,19.9382308 7.14691881,19.9420769 C7.71391881,19.9457308 18.5307586,19.9446731 18.9835495,19.9446731 C19.8949641,19.9446731 20.4880234,19.9437116 21.1251105,19.8960192 C22.586215,19.7869808 23.9665077,19.2393847 25.0822567,18.1194808 C27.5599536,15.6325577 27.5972079,11.5964038 25.1788735,9.07025 M23.3693091,16.3300577 C22.8891418,16.8157308 22.0326679,17.3672692 20.6266923,17.4161153 C19.9765285,17.4387116 19.2173299,17.4412116 18.8699048,17.4412116 C18.4908701,17.4412116 15.1476679,17.4412116 11.3153613,17.4412116 C14.0639989,14.7126538 16.4616366,12.3324615 16.7336122,12.0625577 C16.9828213,11.8151538 17.5432359,11.2671731 18.0266017,10.8223654 C19.0876923,9.84573077 20.0431349,9.64919231 20.7186052,9.65563461 C21.7772498,9.66582692 22.7400304,10.1076538 23.428201,10.8209231 C24.9003125,12.3589038 24.8655041,14.8166923 23.3693091,16.3300577" id="Fill-1" fill="#00A3FF"></path>
                        <path d="M9.98949199,8.46985577 C8.8828683,7.62341347 7.64387875,7.15024039 6.23931428,7.15224678 C4.49024112,7.15224678 2.91680906,7.89370192 1.78798328,9.07024039 C-0.630257143,11.5963942 -0.593002787,15.6326442 1.88469407,18.1194711 C2.87946062,19.1179327 4.08458258,19.6612019 5.36976376,19.8445673 L7.79374285,17.4405289 C7.40181952,17.4388942 6.83933519,17.4334134 6.34016445,17.4161058 C4.93428292,17.3672597 4.07780906,16.8158173 3.59754773,16.3300481 C2.10135261,14.8166827 2.06654426,12.3588942 3.53874983,10.8209135 C4.22692055,10.1076442 5.18970105,9.66581731 6.24825157,9.65572116 C6.91158606,9.65293269 7.81189964,9.84985577 8.82915052,10.7116827 C9.31477421,11.123125 10.3929868,12.091875 10.8660042,12.5278365 C10.8900878,12.5500481 10.9190634,12.5520673 10.9472864,12.5284135 L12.6163004,10.8639904 C12.6451819,10.8353365 12.6434885,10.7966827 12.6149833,10.7703365 C11.8123212,10.0287019 10.67437,8.99110577 9.98949199,8.46985577" id="Fill-4" fill="#00C8DC"></path>
                        <path d="M21.3838777,5.7075 C20.2321914,2.38259616 17.1309543,0 13.4834143,0 C9.29935505,0 5.83206586,3.14461539 5.20410418,7.24096153 C5.54061638,7.18298077 5.88634809,7.15230769 6.23932369,7.15230769 C6.73049792,7.15163461 7.20097526,7.21019231 7.65310766,7.32144231 C7.66195086,7.32326923 7.67079407,7.32432692 7.67954321,7.32653847 C8.24644914,4.56086539 10.6386303,2.50644231 13.4834143,2.50644231 C15.8526407,2.50644231 17.9312644,3.96711539 18.8682679,6.03673077 C18.883038,6.06932692 18.9079682,6.08009616 18.9335572,6.07298077 C19.6382854,5.875 20.4832818,5.75990384 21.2993969,5.82144231 C21.3788916,5.8275 21.4094665,5.78173077 21.3838777,5.7075" id="Fill-6" fill="#006EFF"></path>
                    </g>
                    <g id="编组" transform="translate(13.000000, 13.000000)">
                        <path d="M3.48780488,0 L9.48261806,0 C11.4088795,0 12.9704229,1.56700338 12.9704229,3.5 C12.9704229,5.43299663 11.4088795,7 9.48261806,7 L3.48780488,7 C1.56154343,7 -2.48689958e-13,5.43299663 -2.48689958e-13,3.5 C-2.48689958e-13,1.56700338 1.56154343,0 3.48780488,0 Z" id="Rectangle-71-Copy-4" fill="#000000" opacity="0.7"></path>
                        <path d="M8.15651251,1.15265367 L6.21741718,5.41684702 L5.08255264,5.41684702 L7.02536751,1.15265367 L8.15651251,1.15265367 Z M3.83420164,1.92953956 L4.56127817,2.59290955 L3.58443992,3.69932215 L4.56127817,4.78378468 L3.83420164,5.41684702 L2.2480454,3.69932215 L3.83420164,1.92953956 Z M9.28805213,1.92953956 L10.8742084,3.69932215 L9.28805213,5.41684702 L8.56097561,4.78378468 L9.53781386,3.69932215 L8.56097561,2.59290955 L9.28805213,1.92953956 Z" id="形状结合" fill="#FFFFFF"></path>
                    </g>
                </g>
                <g id="编组" transform="translate(33.000000, 2.000000)">
                    <polygon id="Fill-1" fill="#FFFFFF" points="1.591 1.9591 12.89 1.9591 12.89 0.5271 1.591 0.5271"></polygon>
                    <g transform="translate(0.000000, 0.384100)">
                        <path d="M0.0001,6.9857 L4.0181,6.9857 C3.1881,9.1647 1.1051,14.6317 1.0911,14.6727 C1.0681,14.7357 1.1091,14.7827 1.1641,14.7827 L13.6561,14.7827 C13.7151,14.7827 13.7491,14.7237 13.7281,14.6697 C13.7151,14.6347 11.8661,9.7717 11.8661,9.7717 L10.3111,9.7717 C10.2511,9.7717 10.2161,9.8297 10.2361,9.8817 C10.2561,9.9327 11.5531,13.3507 11.5531,13.3507 L3.2711,13.3507 L5.6891,6.9857 L14.4811,6.9857 L14.4811,5.5537 L0.0001,5.5537 L0.0001,6.9857 Z" id="Fill-2" fill="#FFFFFF"></path>
                        <mask id="mask-2" fill="white">
                            <use xlink:href="#path-1"></use>
                        </mask>
                        <g id="Clip-5"></g>
                    </g>
                    <path d="M21.097,6.6101 L26.284,6.6101 L26.284,1.7601 L21.097,1.7601 L21.097,6.6101 Z M27.862,1.7601 L30.42,1.7601 L30.42,0.3131 L16.72,0.3131 L16.72,1.7601 L19.519,1.7601 L19.519,6.6101 L16.249,6.6101 L16.249,8.0571 L19.486,8.0571 C19.332,10.7941 18.611,13.0101 17.178,15.1701 C17.17,15.1831 17.168,15.1991 17.168,15.2141 C17.168,15.2591 17.204,15.2951 17.248,15.2951 L18.961,15.2951 C20.248,13.1081 20.921,10.7891 21.066,8.0571 L26.283,8.0571 L26.283,15.3741 L27.861,15.3741 L27.861,8.0571 L30.886,8.0571 L30.886,6.6101 L27.862,6.6101 L27.862,1.7601 Z" id="Fill-4" fill="#FFFFFF"></path>
                    <path d="M43.877,8.2399 C43.331,8.9169 42.375,9.9779 41.062,10.9989 C40.136,10.1649 39.362,9.2159 38.862,8.2399 L43.877,8.2399 Z M38.999,4.0429 C39.414,2.4969 39.673,1.0739 39.811,-0.0001 L38.316,-0.0001 C38.168,1.1529 37.888,2.5659 37.468,4.0429 L34.698,4.0429 L35.97,0.6289 L34.424,0.6289 L32.672,5.3319 C32.644,5.3989 32.687,5.4529 32.742,5.4529 L34.159,5.4529 L34.159,5.4549 L37.027,5.4549 C36.045,8.3379 34.534,11.2249 32.433,12.7159 L32.432,14.3619 C34.606,13.1959 36.195,11.0199 37.339,8.6269 C37.878,9.7919 38.735,10.9129 39.78,11.8969 C38.276,12.8409 36.44,13.6169 34.32,13.8139 L34.314,15.3819 C36.966,15.2029 39.233,14.1729 41.036,12.9469 C42.866,14.3049 45.033,15.2399 47.032,15.3849 L47.032,13.8479 C45.497,13.7369 43.802,13.0259 42.314,11.9909 C44.464,10.2239 45.691,8.4029 45.776,8.2409 L45.776,6.8289 L38.104,6.8289 C38.278,6.3699 38.439,5.9099 38.585,5.4549 L47.335,5.4549 L47.335,4.0429 L38.999,4.0429 Z" id="Fill-6" fill="#FFFFFF"></path>
                    <path d="M43.668,3.1188 L45.407,3.1188 C45.494,3.1188 45.537,3.0298 45.491,2.9568 C45.444,2.8838 43.794,0.3348 43.794,0.3348 L42.055,0.3348 C41.984,0.3348 41.921,0.4088 41.967,0.4888 C42.007,0.5588 43.668,3.1188 43.668,3.1188" id="Fill-7" fill="#FFFFFF"></path>
                </g>
            </g>
        </g>
    </g>
</svg>