<?xml version="1.0" encoding="UTF-8"?>
<svg width="16px" height="16px" viewBox="0 0 16 16" version="1.1" xmlns="http://www.w3.org/2000/svg" xmlns:xlink="http://www.w3.org/1999/xlink">
    <!-- Generator: Sketch 63.1 (92452) - https://sketch.com -->
    <title>Icon / Outlined / cloud</title>
    <desc>Created with Sketch.</desc>
    <g id="组件-Dark" stroke="none" stroke-width="1" fill="none" fill-rule="evenodd">
        <g id="Icon-/-Outlined-/-cloud" fill="#10aeff">
            <path d="M8.67320346,2.87784657 C7.31748079,2.26310094 5.80401529,2.52821083 4.90040085,3.54260158 C4.34389141,4.16849572 4.0826147,5.0056019 4.15902554,5.88758841 L4.18518797,6.10892379 L4.28,6.61085724 L3.75588816,6.59052749 C2.79373606,6.54648483 1.91146457,6.90068942 1.30807098,7.57824442 C0.170397584,8.85578419 0.33496795,10.9113031 1.65926809,12.2506523 L1.81117786,12.3964457 L1.96911829,12.5251838 C2.43673124,12.9063373 2.97712674,13.1686047 3.54926978,13.2940365 C4.63819991,13.5327787 5.71221202,13.2486824 6.44718013,12.5335265 L6.58955713,12.384775 L10.1816568,8.34939084 C10.9879861,7.44324436 12.471404,7.48574872 13.5011305,8.42402993 C14.5306809,9.36215072 14.7274321,10.8478715 13.9215728,11.7534898 C13.3703466,12.372373 12.4798499,12.5638493 11.6103481,12.2750198 L11.4368345,12.2108341 C11.0857155,12.0561684 10.6940628,12.0522106 10.426902,12.1955873 C10.1659811,12.3356956 10.1695117,12.5851447 10.4618074,12.8515454 C10.5132965,12.8984661 10.5734591,12.9426324 10.6428643,12.9844338 L10.753975,13.0454108 L10.8185054,13.0763682 C11.6293685,13.4727751 12.5347881,13.5570553 13.3400321,13.3134386 C13.8699339,13.1533766 14.3312929,12.8615409 14.6917847,12.456423 C15.8707032,11.1315638 15.6523041,8.97111108 14.1944764,7.64335962 C13.6942561,7.18793098 13.0958185,6.87757689 12.4530127,6.7371206 C11.3621437,6.49816651 10.2884442,6.78195604 9.5538005,7.49755831 L9.41148787,7.64640932 L5.81927274,11.6807867 C5.17777814,12.4008878 4.08188537,12.5427973 3.12890261,12.0641367 L2.96233426,11.9732167 L2.70936587,11.7836941 C2.63129815,11.7252062 2.56227525,11.6685201 2.49882979,11.61052 C1.4693273,10.6724429 1.27238795,9.18542078 2.07829216,8.28116727 C2.60301735,7.69163051 3.41958777,7.50239282 4.27669123,7.74233581 L4.47791468,7.80480931 L4.66245186,7.87013055 C5.26190609,8.08731836 5.39630349,8.08303801 5.60967504,7.84374556 C5.77507133,7.65779912 5.79492717,7.52122339 5.69793807,7.26452338 L5.64038208,7.12764694 L5.40777689,6.64517292 C5.38778864,6.60054448 5.37070552,6.559908 5.35348859,6.5165788 C5.03383867,5.71286592 5.14823408,4.83406497 5.67040536,4.24576793 C6.22605859,3.62132923 7.1304867,3.42973625 8.00898563,3.73494475 C8.63274575,3.95029951 9.00901628,3.95892323 9.25026688,3.76173087 C9.3105896,3.71231686 9.35432792,3.63908473 9.36147365,3.57974531 C9.39051573,3.33954557 9.15706732,3.09714112 8.67320346,2.87784657 Z" id="color"></path>
        </g>
    </g>
</svg>