<?xml version="1.0" encoding="UTF-8"?>
<svg width="90px" height="23px" viewBox="0 0 90 23" version="1.1" xmlns="http://www.w3.org/2000/svg" xmlns:xlink="http://www.w3.org/1999/xlink">
    <!-- Generator: Sketch 55.2 (78181) - https://sketchapp.com -->
    <title>logo</title>
    <desc>Created with Sketch.</desc>
    <defs>
        <polygon id="path-1" points="0 18.0832783 52.8529846 18.0832783 52.8529846 0.696206213 0 0.696206213"></polygon>
    </defs>
    <g id="页面1" stroke="none" stroke-width="1" fill="none" fill-rule="evenodd">
        <g id="首页" transform="translate(-238.000000, -14.000000)">
            <g id="编组-11" transform="translate(238.000000, 7.000000)">
                <g id="logo" transform="translate(0.000000, 7.000000)">
                    <g id="腾讯云开发者小程序logo" fill-rule="nonzero">
                        <g id="Group-125-Copy-4" fill="#FFFFFF">
                            <path d="M28.2908691,10.0893792 C27.0225256,8.78075237 25.2547301,7.95610889 23.2894793,7.95589499 C21.5906029,7.95589499 20.128081,8.54854732 18.8511752,9.60068972 C18.2944317,10.0593241 17.7105223,10.6084447 16.9759844,11.3304088 C16.6110938,11.6889309 6.03307247,22.0747325 6.03307247,22.0747325 C6.58759621,22.1546298 7.35025133,22.1784814 8.03024585,22.1827597 C8.6673245,22.1868241 20.8210771,22.1856476 21.3298309,22.1856476 C22.3538923,22.1856476 23.020251,22.184578 23.7360792,22.131527 C25.3777697,22.010237 26.9286603,21.4011133 28.1823109,20.1553775 C30.96624,17.3890248 31.0080988,12.8993706 28.2908691,10.0893792 M26.2576507,18.1648956 C25.7181369,18.7051387 24.7558067,19.3186478 23.1760588,19.3729822 C22.4455376,19.3981174 21.5925055,19.4008983 21.2021402,19.4008983 C20.7762585,19.4008983 17.0198516,19.4008983 12.7138891,19.4008983 C15.802246,16.365761 18.4962209,13.7181314 18.8018115,13.4179012 C19.0818217,13.1426992 19.711501,12.5331476 20.2546087,12.0383615 C21.4468453,10.9519926 22.5203763,10.7333712 23.2793317,10.7405374 C24.46882,10.7518749 25.5505959,11.2433453 26.3238213,12.0367571 C27.9778792,13.7475447 27.9387687,16.4814892 26.2576507,18.1648956" id="Fill-1"></path>
                            <path d="M11.2241483,9.42152495 C9.9807509,8.47997678 8.58862781,7.95363819 7.01046549,7.95587001 C5.04521474,7.95587001 3.27731356,8.78063472 2.00896997,10.0893685 C-0.708154094,12.8993599 -0.666295267,17.3891211 2.11763379,20.1553667 C3.23534902,21.266015 4.58941863,21.8703257 6.03344243,22.074294 L8.75701444,19.4001389 C8.31665114,19.3983205 7.68464628,19.3922239 7.12378028,19.3729716 C5.54413811,19.3186372 4.58180794,18.705235 4.04218846,18.164885 C2.36107035,16.4814785 2.32195984,13.747534 3.9761234,12.0367464 C4.74934894,11.2433346 5.83112478,10.7518642 7.02050739,10.7406336 C7.76582703,10.7375319 8.77741533,10.9565811 9.92039385,11.9152425 C10.4660384,12.3729143 11.6775132,13.4505126 12.2089935,13.9354586 C12.2360537,13.9601658 12.2686106,13.962412 12.3003218,13.9361004 L14.1756184,12.0846635 C14.2080695,12.0527901 14.2061668,12.0097931 14.1741385,11.9804867 C13.2722711,11.1555224 11.9936742,10.0013424 11.2241483,9.42152495" id="Fill-4"></path>
                            <path d="M24.0268289,6.34879213 C22.7327993,2.65030359 19.2482633,0 15.1499037,0 C10.4487135,0 6.55288299,3.49794296 5.84730807,8.05455271 C6.22541167,7.99005726 6.61387425,7.95593776 7.01047605,7.95593776 C7.56235721,7.95518906 8.09098344,8.02032628 8.59899737,8.14407628 C8.60893356,8.14610847 8.61886974,8.147285 8.62870023,8.14974504 C9.26567319,5.07332218 11.9535172,2.78806504 15.1499037,2.78806504 C17.8119558,2.78806504 20.1474881,4.41285869 21.2003011,6.71501512 C21.2168966,6.75127377 21.2449081,6.76325303 21.2736597,6.75533816 C22.0654892,6.53511236 23.0149234,6.40708405 23.9319066,6.47553695 C24.0212266,6.48227528 24.0555804,6.43136344 24.0268289,6.34879213" id="Fill-6"></path>
                        </g>
                        <g id="编组" transform="translate(14.606742, 14.460674)">
                            <path d="M3.91888189,0 L10.654627,0 C12.8189657,0 14.5735089,1.74307117 14.5735089,3.89325843 C14.5735089,6.04344568 12.8189657,7.78651685 10.654627,7.78651685 L3.91888189,7.78651685 C1.75454318,7.78651685 -2.48689958e-13,6.04344568 -2.48689958e-13,3.89325843 C-2.48689958e-13,1.74307117 1.75454318,0 3.91888189,0 Z" id="Rectangle-71-Copy-4" fill="#000000" opacity="0.7"></path>
                            <path d="M9.16462079,1.28216532 L6.985862,6.02548152 L5.71073331,6.02548152 L7.89367136,1.28216532 L9.16462079,1.28216532 Z M4.30809173,2.14634176 L5.12503165,2.8842477 L4.02746058,4.11497633 L5.12503165,5.32128858 L4.30809173,6.02548152 L2.52589371,4.11497633 L4.30809173,2.14634176 Z M10.4360136,2.14634176 L12.2182117,4.11497633 L10.4360136,6.02548152 L9.61907372,5.32128858 L10.7166448,4.11497633 L9.61907372,2.8842477 L10.4360136,2.14634176 Z" id="形状结合" fill="#FFFFFF"></path>
                        </g>
                    </g>
                    <g id="编组" transform="translate(36.404494, 2.022472)">
                        <polygon id="Fill-1" fill="#FFFFFF" points="1.7764677 2.2141844 14.3926264 2.2141844 14.3926264 0.595730998 1.7764677 0.595730998"></polygon>
                        <g transform="translate(0.000000, 0.434112)">
                            <path d="M0.000111657303,7.89527231 L4.48650211,7.89527231 C3.55974649,10.3579888 1.23392486,16.5368189 1.21829284,16.5831573 C1.19261166,16.6543602 1.23839115,16.7074798 1.29980267,16.7074798 L15.248033,16.7074798 C15.3139108,16.7074798 15.3518743,16.6407978 15.3284263,16.5797667 C15.3139108,16.5402095 13.2493673,11.0440231 13.2493673,11.0440231 L11.5130962,11.0440231 C11.4461018,11.0440231 11.4070218,11.109575 11.4293532,11.1683457 C11.4516847,11.2259861 12.8998799,15.0890264 12.8998799,15.0890264 L3.65242205,15.0890264 L6.35229565,7.89527231 L16.1692058,7.89527231 L16.1692058,6.2768189 L0.000111657303,6.2768189 L0.000111657303,7.89527231 Z" id="Fill-2" fill="#FFFFFF"></path>
                            <mask id="mask-2" fill="white">
                                <use xlink:href="#path-1"></use>
                            </mask>
                            <g id="Clip-5"></g>
                        </g>
                        <path d="M23.5563413,7.47076735 L29.3480056,7.47076735 L29.3480056,1.98927363 L23.5563413,1.98927363 L23.5563413,7.47076735 Z M31.1099579,1.98927363 L33.9661517,1.98927363 L33.9661517,0.353867151 L18.6691011,0.353867151 L18.6691011,1.98927363 L21.794389,1.98927363 L21.794389,7.47076735 L18.1431952,7.47076735 L18.1431952,9.10617383 L21.7575421,9.10617383 C21.5855899,12.1995446 20.7805407,14.7040787 19.1804916,17.1453212 C19.171559,17.1600139 19.1693258,17.1780972 19.1693258,17.1950502 C19.1693258,17.2459095 19.2095225,17.2865968 19.2586517,17.2865968 L21.1713413,17.2865968 C22.6083708,14.8148387 23.3598244,12.1938936 23.5217275,9.10617383 L29.346889,9.10617383 L29.346889,17.375883 L31.1088413,17.375883 L31.1088413,9.10617383 L34.4864747,9.10617383 L34.4864747,7.47076735 L31.1099579,7.47076735 L31.1099579,1.98927363 Z" id="Fill-4" fill="#FFFFFF"></path>
                        <path d="M48.991875,9.31277528 C48.3822261,10.077924 47.3147823,11.2770714 45.8487219,12.4310106 C44.8147753,11.4884197 43.9505478,10.4158553 43.3922612,9.31277528 L48.991875,9.31277528 Z M43.5452317,4.56930535 C44.0086096,2.82200859 44.297802,1.21372703 44.451889,-0.000113020489 L42.7826124,-0.000113020489 C42.6173596,1.30301322 42.3047191,2.89999273 41.8357584,4.56930535 L38.7428511,4.56930535 L40.163132,0.710785856 L38.4369101,0.710785856 L36.4806742,6.02613946 C36.4494101,6.10186319 36.4974228,6.16289425 36.5588343,6.16289425 L38.1410183,6.16289425 L38.1410183,6.16515466 L41.3433497,6.16515466 C40.246875,9.42353536 38.5597331,12.6864369 36.2138132,14.3715724 L36.2126966,16.2318896 C38.6401264,14.9140707 40.414361,12.4547449 41.6917205,9.75016457 C42.2935534,11.0668533 43.2504565,12.333813 44.4172753,13.4459346 C42.7379494,14.512848 40.6879213,15.389887 38.3207865,15.6125373 L38.3140871,17.3846986 C41.2752388,17.1823919 43.8065098,16.0182809 45.819691,14.6326497 C47.8630197,16.1674679 50.2826334,17.2242095 52.5146629,17.3880892 L52.5146629,15.6509643 C50.8007233,15.5255116 48.908132,14.7219359 47.2466713,13.5521738 C49.6473034,11.5551018 51.0173385,9.49699868 51.1122472,9.31390549 L51.1122472,7.71805618 L42.5458989,7.71805618 C42.7401826,7.19929213 42.9199508,6.67939788 43.0829705,6.16515466 L52.8529846,6.16515466 L52.8529846,4.56930535 L43.5452317,4.56930535 Z" id="Fill-6" fill="#FFFFFF"></path>
                        <path d="M48.7585112,3.52488301 L50.7002317,3.52488301 C50.7973736,3.52488301 50.8453862,3.42429478 50.7940239,3.34178982 C50.7415449,3.25928486 48.8991994,0.378392597 48.8991994,0.378392597 L46.9574789,0.378392597 C46.8782022,0.378392597 46.8078581,0.462027759 46.8592205,0.552444151 C46.9038834,0.631558493 48.7585112,3.52488301 48.7585112,3.52488301" id="Fill-7" fill="#FFFFFF"></path>
                    </g>
                </g>
            </g>
        </g>
    </g>
</svg>